<svg width="181" height="26" viewBox="0 0 181 26" fill="none" xmlns="http://www.w3.org/2000/svg">
<path d="M9.60473 18.4324C8.80932 17.7369 8.1386 16.9125 7.61994 15.9972C6.84073 14.6222 6.40473 13.0419 6.40473 11.3852V7.55479L12.5722 5.41168C12.7234 5.35915 12.8879 5.35915 13.0391 5.41171L14.9381 6.07176V9.91908C14.9381 11.43 13.9832 12.7759 12.5571 13.275L7.82695 14.9306" stroke="white" stroke-width="2.98667" stroke-linejoin="round"/>
<path d="M19.2015 7.55396V11.3862C19.2015 15.4141 16.6238 18.99 12.8024 20.2632C12.1739 20.0539 11.579 19.7822 11.0237 19.4566" stroke="url(#paint0_linear_5621_16744)" stroke-width="2.98667" stroke-linejoin="round"/>
<path d="M26.9659 18.8V7.28005H31.9525C32.9838 7.28005 33.8725 7.45011 34.6185 7.79022C35.3646 8.11936 35.9406 8.59662 36.3465 9.22199C36.7525 9.84736 36.9554 10.5934 36.9554 11.4602C36.9554 12.3159 36.7525 13.0565 36.3465 13.6819C35.9406 14.3072 35.3646 14.79 34.6185 15.1301C33.8725 15.4592 32.9838 15.6238 31.9525 15.6238H28.4471L29.632 14.4224V18.8H26.9659ZM29.632 14.7187L28.4471 13.4515H31.8043C32.6272 13.4515 33.2416 13.2759 33.6475 12.9248C34.0535 12.5738 34.2565 12.0855 34.2565 11.4602C34.2565 10.8238 34.0535 10.3301 33.6475 9.97902C33.2416 9.62793 32.6272 9.45239 31.8043 9.45239H28.4471L29.632 8.18519V14.7187ZM43.0558 18.9317C42.0464 18.9317 41.1577 18.7342 40.3897 18.3392C39.6327 17.9443 39.0457 17.4067 38.6288 16.7264C38.2119 16.0352 38.0034 15.2508 38.0034 14.3731C38.0034 13.4844 38.2064 12.6999 38.6123 12.0197C39.0292 11.3285 39.5943 10.7909 40.3074 10.4069C41.0206 10.0119 41.827 9.81445 42.7266 9.81445C43.5934 9.81445 44.3723 10.001 45.0635 10.374C45.7657 10.736 46.3198 11.2627 46.7257 11.9539C47.1316 12.6341 47.3346 13.4515 47.3346 14.406C47.3346 14.5047 47.3291 14.6199 47.3182 14.7516C47.3072 14.8723 47.2962 14.9875 47.2852 15.0972H40.0935V13.5996H45.9358L44.9483 14.0439C44.9483 13.5831 44.8551 13.1827 44.6686 12.8426C44.482 12.5024 44.2242 12.2391 43.8951 12.0526C43.5659 11.8551 43.1819 11.7564 42.7431 11.7564C42.3042 11.7564 41.9147 11.8551 41.5746 12.0526C41.2455 12.2391 40.9876 12.5079 40.8011 12.859C40.6146 13.1991 40.5214 13.6051 40.5214 14.0768V14.4718C40.5214 14.9546 40.6256 15.3824 40.834 15.7555C41.0535 16.1175 41.3552 16.3973 41.7392 16.5948C42.1342 16.7813 42.595 16.8746 43.1216 16.8746C43.5934 16.8746 44.0048 16.8032 44.3559 16.6606C44.7179 16.518 45.0471 16.304 45.3433 16.0188L46.7092 17.4999C46.3033 17.9607 45.7931 18.3173 45.1787 18.5696C44.5643 18.811 43.8567 18.9317 43.0558 18.9317ZM52.6644 18.9317C51.6221 18.9317 50.8102 18.6684 50.2288 18.1418C49.6473 17.6042 49.3565 16.8087 49.3565 15.7555V7.98771H51.9238V15.7226C51.9238 16.0956 52.0226 16.3863 52.2201 16.5948C52.4176 16.7923 52.6864 16.891 53.0265 16.891C53.4324 16.891 53.778 16.7813 54.0633 16.5619L54.7545 18.3722C54.4912 18.5587 54.173 18.7013 53.8 18.8C53.4379 18.8878 53.0594 18.9317 52.6644 18.9317ZM47.9906 12.1184V10.1436H54.1291V12.1184H47.9906ZM61.6265 18.8V17.072L61.4619 16.6935V13.5996C61.4619 13.051 61.2919 12.6231 60.9517 12.3159C60.6226 12.0087 60.1124 11.8551 59.4212 11.8551C58.9495 11.8551 58.4832 11.9319 58.0224 12.0855C57.5725 12.2282 57.1885 12.4256 56.8704 12.678L55.9488 10.8842C56.4315 10.544 57.013 10.2807 57.6932 10.0942C58.3735 9.90771 59.0647 9.81445 59.7668 9.81445C61.1163 9.81445 62.1641 10.1326 62.9101 10.769C63.6562 11.4053 64.0292 12.3982 64.0292 13.7477V18.8H61.6265ZM58.9275 18.9317C58.2363 18.9317 57.6439 18.8165 57.1501 18.5861C56.6564 18.3447 56.2779 18.0211 56.0146 17.6151C55.7513 17.2092 55.6196 16.7539 55.6196 16.2492C55.6196 15.7226 55.7458 15.2618 55.9981 14.8668C56.2615 14.4718 56.6729 14.1646 57.2324 13.9452C57.792 13.7148 58.5216 13.5996 59.4212 13.5996H61.7746V15.0972H59.701C59.0976 15.0972 58.6807 15.1959 58.4503 15.3934C58.2308 15.5909 58.1211 15.8378 58.1211 16.134C58.1211 16.4631 58.2473 16.7264 58.4996 16.9239C58.7629 17.1104 59.1195 17.2037 59.5693 17.2037C59.9972 17.2037 60.3812 17.105 60.7213 16.9075C61.0615 16.699 61.3083 16.3973 61.4619 16.0023L61.8569 17.1872C61.6704 17.7578 61.3303 18.1911 60.8365 18.4874C60.3428 18.7836 59.7065 18.9317 58.9275 18.9317ZM71.3511 18.8V7.28005H76.0414C77.2702 7.28005 78.3454 7.52691 79.267 8.02062C80.1996 8.50336 80.9237 9.17811 81.4393 10.0448C81.955 10.9116 82.2128 11.91 82.2128 13.04C82.2128 14.1701 81.955 15.1685 81.4393 16.0352C80.9237 16.902 80.1996 17.5822 79.267 18.0759C78.3454 18.5587 77.2702 18.8 76.0414 18.8H71.3511ZM72.5689 17.7468H75.9756C76.9959 17.7468 77.8791 17.5493 78.6252 17.1543C79.3822 16.7484 79.9692 16.1943 80.3861 15.4922C80.803 14.779 81.0115 13.9616 81.0115 13.04C81.0115 12.1075 80.803 11.2901 80.3861 10.5879C79.9692 9.88576 79.3822 9.33719 78.6252 8.94222C77.8791 8.53628 76.9959 8.33331 75.9756 8.33331H72.5689V17.7468ZM88.3706 18.8823C87.471 18.8823 86.681 18.6958 86.0008 18.3228C85.3206 17.9388 84.7885 17.4176 84.4045 16.7594C84.0205 16.0901 83.8285 15.3276 83.8285 14.4718C83.8285 13.616 84.0095 12.859 84.3715 12.2007C84.7446 11.5424 85.2493 11.0268 85.8856 10.6538C86.5329 10.2698 87.257 10.0778 88.0579 10.0778C88.8698 10.0778 89.5885 10.2643 90.2138 10.6373C90.8502 10.9994 91.3494 11.515 91.7114 12.1843C92.0735 12.8426 92.2545 13.6051 92.2545 14.4718C92.2545 14.5267 92.249 14.587 92.2381 14.6528C92.2381 14.7077 92.2381 14.768 92.2381 14.8339H84.7171V13.9616H91.6127L91.1519 14.3072C91.1519 13.6819 91.0147 13.1278 90.7405 12.6451C90.4771 12.1514 90.1151 11.7674 89.6543 11.4931C89.1935 11.2188 88.6614 11.0816 88.0579 11.0816C87.4655 11.0816 86.9334 11.2188 86.4616 11.4931C85.9898 11.7674 85.6223 12.1514 85.359 12.6451C85.0957 13.1388 84.964 13.7038 84.964 14.3402V14.5212C84.964 15.1795 85.1066 15.761 85.3919 16.2656C85.6881 16.7594 86.0941 17.1488 86.6097 17.4341C87.1363 17.7084 87.7343 17.8455 88.4035 17.8455C88.9302 17.8455 89.4184 17.7523 89.8682 17.5658C90.329 17.3792 90.724 17.094 91.0531 16.71L91.7114 17.467C91.3274 17.9278 90.8447 18.2789 90.2632 18.5203C89.6927 18.7616 89.0618 18.8823 88.3706 18.8823ZM96.9533 18.8823C96.2401 18.8823 95.5654 18.7836 94.929 18.5861C94.2927 18.3776 93.7935 18.1198 93.4314 17.8126L93.9581 16.891C94.3092 17.1543 94.759 17.3847 95.3076 17.5822C95.8561 17.7687 96.4321 17.862 97.0356 17.862C97.8584 17.862 98.4509 17.7358 98.8129 17.4835C99.175 17.2202 99.356 16.8746 99.356 16.4467C99.356 16.1285 99.2518 15.8816 99.0433 15.7061C98.8458 15.5196 98.5825 15.3824 98.2534 15.2947C97.9242 15.1959 97.5567 15.1136 97.1508 15.0478C96.7448 14.982 96.3389 14.9052 95.9329 14.8174C95.538 14.7296 95.1759 14.6035 94.8468 14.4389C94.5176 14.2634 94.2488 14.0275 94.0404 13.7312C93.8429 13.435 93.7441 13.04 93.7441 12.5463C93.7441 12.0746 93.8758 11.6522 94.1391 11.2791C94.4024 10.9061 94.7864 10.6154 95.2911 10.4069C95.8068 10.1875 96.4321 10.0778 97.1672 10.0778C97.7268 10.0778 98.2863 10.1546 98.8458 10.3082C99.4054 10.4508 99.8662 10.6428 100.228 10.8842L99.7181 11.8222C99.3341 11.5589 98.9226 11.3724 98.4838 11.2627C98.0449 11.142 97.6061 11.0816 97.1672 11.0816C96.3882 11.0816 95.8122 11.2188 95.4392 11.4931C95.0772 11.7564 94.8961 12.0965 94.8961 12.5134C94.8961 12.8426 94.9949 13.1004 95.1924 13.2869C95.4008 13.4734 95.6696 13.6215 95.9988 13.7312C96.3389 13.83 96.7064 13.9123 97.1014 13.9781C97.5073 14.0439 97.9078 14.1262 98.3028 14.225C98.7087 14.3127 99.0762 14.4389 99.4054 14.6035C99.7455 14.7571 100.014 14.982 100.212 15.2782C100.42 15.5635 100.524 15.942 100.524 16.4138C100.524 16.9184 100.382 17.3573 100.097 17.7303C99.8223 18.0924 99.4164 18.3776 98.8788 18.5861C98.3521 18.7836 97.7103 18.8823 96.9533 18.8823ZM103.59 16.5619L103.623 15.0643L109.005 10.16H110.436L106.635 13.7971L105.976 14.3566L103.59 16.5619ZM102.669 18.8V6.58885H103.837V18.8H102.669ZM109.367 18.8L105.762 14.3072L106.52 13.4021L110.798 18.8H109.367Z" fill="white"/>
<defs>
<linearGradient id="paint0_linear_5621_16744" x1="19.2015" y1="7.81861" x2="13.157" y2="20.2631" gradientUnits="userSpaceOnUse">
<stop stop-color="#F56711"/>
<stop offset="1" stop-color="white"/>
</linearGradient>
</defs>
</svg>
