<svg width="108" height="24" viewBox="0 0 108 24" fill="none" xmlns="http://www.w3.org/2000/svg">
<path d="M9.00439 17.2803C8.2587 16.6282 7.6299 15.8554 7.14365 14.9973C6.41315 13.7082 6.00439 12.2267 6.00439 10.6735V7.08253L11.7864 5.07336C11.9282 5.02411 12.0824 5.02412 12.2241 5.07338L14.0044 5.69218V9.29905C14.0044 10.7155 13.1092 11.9773 11.7722 12.4452L7.33773 13.9973" stroke="#26251E" stroke-width="2.8" stroke-linejoin="round"/>
<path d="M18.0013 7.08179V10.6745C18.0013 14.4506 15.5847 17.803 12.0022 18.9967C11.413 18.8005 10.8553 18.5458 10.3347 18.2405" stroke="url(#paint0_linear_155_8481)" stroke-width="2.8" stroke-linejoin="round"/>
<path d="M25.306 17.5V6.48541H30.0738C31.0598 6.48541 31.9095 6.648 32.6229 6.9732C33.3362 7.2879 33.8869 7.74422 34.275 8.34215C34.6632 8.94009 34.8572 9.65341 34.8572 10.4821C34.8572 11.3004 34.6632 12.0084 34.275 12.6064C33.8869 13.2043 33.3362 13.6659 32.6229 13.9911C31.9095 14.3058 31.0598 14.4631 30.0738 14.4631H26.7222L27.8551 13.3145V17.5H25.306ZM27.8551 13.5977L26.7222 12.3861H29.9321C30.7189 12.3861 31.3063 12.2182 31.6945 11.8826C32.0826 11.5469 32.2767 11.0801 32.2767 10.4821C32.2767 9.87371 32.0826 9.40165 31.6945 9.06597C31.3063 8.73029 30.7189 8.56245 29.9321 8.56245H26.7222L27.8551 7.35084V13.5977ZM40.6899 17.6259C39.7248 17.6259 38.8751 17.4371 38.1408 17.0594C37.417 16.6818 36.8558 16.1678 36.4572 15.5174C36.0586 14.8565 35.8592 14.1065 35.8592 13.2672C35.8592 12.4176 36.0533 11.6675 36.4414 11.0171C36.8401 10.3563 37.3803 9.84224 38.0622 9.47508C38.744 9.09744 39.515 8.90862 40.3752 8.90862C41.2039 8.90862 41.9487 9.08695 42.6096 9.44361C43.281 9.78979 43.8107 10.2933 44.1989 10.9542C44.587 11.6046 44.7811 12.3861 44.7811 13.2987C44.7811 13.3931 44.7758 13.5033 44.7653 13.6292C44.7548 13.7445 44.7444 13.8547 44.7339 13.9596H37.8576V12.5277H43.4436L42.4995 12.9525C42.4995 12.512 42.4103 12.1291 42.232 11.8039C42.0536 11.4787 41.8071 11.2269 41.4924 11.0486C41.1777 10.8598 40.8106 10.7654 40.391 10.7654C39.9714 10.7654 39.599 10.8598 39.2738 11.0486C38.9591 11.2269 38.7126 11.4839 38.5342 11.8196C38.3559 12.1448 38.2667 12.5329 38.2667 12.984V13.3617C38.2667 13.8232 38.3664 14.2323 38.5657 14.589C38.7755 14.9352 39.064 15.2027 39.4311 15.3915C39.8088 15.5698 40.2494 15.659 40.7529 15.659C41.2039 15.659 41.5973 15.5908 41.933 15.4544C42.2792 15.3181 42.5939 15.1135 42.8771 14.8408L44.1831 16.2569C43.795 16.6975 43.3072 17.0384 42.7198 17.2797C42.1323 17.5105 41.4557 17.6259 40.6899 17.6259ZM49.877 17.6259C48.8805 17.6259 48.1042 17.3741 47.5482 16.8706C46.9923 16.3566 46.7143 15.596 46.7143 14.589V7.16202H49.169V14.5575C49.169 14.9142 49.2634 15.1922 49.4522 15.3915C49.641 15.5803 49.898 15.6747 50.2232 15.6747C50.6113 15.6747 50.9418 15.5698 51.2145 15.36L51.8754 17.0909C51.6236 17.2692 51.3194 17.4056 50.9628 17.5C50.6166 17.5839 50.2547 17.6259 49.877 17.6259ZM45.4083 11.1115V9.22332H51.2775V11.1115H45.4083ZM58.4459 17.5V15.8478L58.2886 15.4859V12.5277C58.2886 12.0032 58.126 11.5941 57.8008 11.3004C57.4861 11.0066 56.9983 10.8598 56.3374 10.8598C55.8863 10.8598 55.4405 10.9332 54.9999 11.0801C54.5698 11.2164 54.2027 11.4053 53.8985 11.6465L53.0173 9.9314C53.4789 9.60621 54.0348 9.35445 54.6852 9.17612C55.3356 8.99778 55.9965 8.90862 56.6679 8.90862C57.9581 8.90862 58.9599 9.21283 59.6733 9.82126C60.3866 10.4297 60.7433 11.379 60.7433 12.6693V17.5H58.4459ZM55.8654 17.6259C55.2045 17.6259 54.638 17.5157 54.166 17.2954C53.6939 17.0647 53.332 16.7552 53.0802 16.3671C52.8285 15.9789 52.7026 15.5436 52.7026 15.0611C52.7026 14.5575 52.8232 14.1169 53.0645 13.7393C53.3163 13.3617 53.7096 13.0679 54.2446 12.8581C54.7796 12.6378 55.4772 12.5277 56.3374 12.5277H58.5875V13.9596H56.6049C56.028 13.9596 55.6293 14.054 55.409 14.2428C55.1992 14.4316 55.0943 14.6677 55.0943 14.9509C55.0943 15.2656 55.215 15.5174 55.4562 15.7062C55.708 15.8845 56.0489 15.9737 56.479 15.9737C56.8881 15.9737 57.2553 15.8793 57.5805 15.6905C57.9057 15.4911 58.1417 15.2027 58.2886 14.825L58.6662 15.958C58.4879 16.5034 58.1627 16.9178 57.6906 17.201C57.2186 17.4843 56.6102 17.6259 55.8654 17.6259ZM68.082 17.5V6.48541H72.5665C73.7414 6.48541 74.7694 6.72144 75.6506 7.19349C76.5422 7.65505 77.2346 8.30019 77.7276 9.12891C78.2206 9.95763 78.4672 10.9122 78.4672 11.9927C78.4672 13.0732 78.2206 14.0278 77.7276 14.8565C77.2346 15.6852 76.5422 16.3356 75.6506 16.8077C74.7694 17.2692 73.7414 17.5 72.5665 17.5H68.082ZM69.2464 16.493H72.5035C73.4791 16.493 74.3236 16.3041 75.0369 15.9265C75.7607 15.5384 76.3219 15.0086 76.7206 14.3372C77.1192 13.6554 77.3185 12.8739 77.3185 11.9927C77.3185 11.101 77.1192 10.3195 76.7206 9.64817C76.3219 8.9768 75.7607 8.4523 75.0369 8.07466C74.3236 7.68652 73.4791 7.49246 72.5035 7.49246H69.2464V16.493ZM84.3548 17.5787C83.4946 17.5787 82.7393 17.4003 82.0889 17.0437C81.4386 16.6765 80.9298 16.1782 80.5626 15.5488C80.1955 14.9089 80.0119 14.1799 80.0119 13.3617C80.0119 12.5434 80.185 11.8196 80.5312 11.1902C80.8878 10.5608 81.3704 10.0678 81.9788 9.71111C82.5977 9.34396 83.2901 9.16038 84.0558 9.16038C84.8321 9.16038 85.5192 9.33871 86.1171 9.69538C86.7256 10.0415 87.2029 10.5346 87.549 11.1745C87.8952 11.8039 88.0683 12.5329 88.0683 13.3617C88.0683 13.4141 88.063 13.4718 88.0526 13.5347C88.0526 13.5872 88.0526 13.6449 88.0526 13.7078H80.8616V12.8739H87.4546L87.014 13.2043C87.014 12.6064 86.8829 12.0766 86.6207 11.6151C86.3689 11.143 86.0227 10.7759 85.5821 10.5136C85.1416 10.2513 84.6328 10.1202 84.0558 10.1202C83.4894 10.1202 82.9806 10.2513 82.5295 10.5136C82.0784 10.7759 81.727 11.143 81.4753 11.6151C81.2235 12.0871 81.0976 12.6274 81.0976 13.2358V13.4089C81.0976 14.0383 81.234 14.5942 81.5067 15.0768C81.79 15.5488 82.1781 15.9212 82.6711 16.194C83.1747 16.4562 83.7464 16.5874 84.3863 16.5874C84.8898 16.5874 85.3566 16.4982 85.7867 16.3199C86.2273 16.1415 86.6049 15.8688 86.9196 15.5016L87.549 16.2255C87.1819 16.666 86.7203 17.0017 86.1643 17.2325C85.6189 17.4633 85.0157 17.5787 84.3548 17.5787ZM92.5609 17.5787C91.8791 17.5787 91.2339 17.4843 90.6255 17.2954C90.0171 17.0961 89.5398 16.8496 89.1936 16.5559L89.6971 15.6747C90.0328 15.9265 90.4629 16.1468 90.9874 16.3356C91.5119 16.5139 92.0626 16.6031 92.6396 16.6031C93.4263 16.6031 93.9928 16.4825 94.339 16.2412C94.6852 15.9894 94.8582 15.659 94.8582 15.2499C94.8582 14.9457 94.7586 14.7096 94.5593 14.5418C94.3705 14.3635 94.1187 14.2323 93.804 14.1484C93.4893 14.054 93.1379 13.9753 92.7497 13.9124C92.3616 13.8494 91.9735 13.776 91.5853 13.6921C91.2077 13.6082 90.8615 13.4875 90.5468 13.3302C90.2321 13.1623 89.9751 12.9368 89.7758 12.6536C89.587 12.3703 89.4926 11.9927 89.4926 11.5207C89.4926 11.0696 89.6184 10.6657 89.8702 10.309C90.122 9.95238 90.4891 9.67439 90.9717 9.47508C91.4647 9.26528 92.0626 9.16038 92.7655 9.16038C93.3005 9.16038 93.8355 9.23381 94.3705 9.38067C94.9055 9.51704 95.346 9.70062 95.6922 9.9314L95.2044 10.8283C94.8373 10.5765 94.4439 10.3982 94.0243 10.2933C93.6047 10.1779 93.1851 10.1202 92.7655 10.1202C92.0207 10.1202 91.4699 10.2513 91.1133 10.5136C90.7671 10.7654 90.594 11.0906 90.594 11.4892C90.594 11.8039 90.6884 12.0504 90.8773 12.2287C91.0766 12.4071 91.3336 12.5487 91.6483 12.6536C91.9735 12.748 92.3249 12.8267 92.7025 12.8896C93.0907 12.9525 93.4736 13.0312 93.8512 13.1256C94.2393 13.2096 94.5907 13.3302 94.9055 13.4875C95.2306 13.6344 95.4877 13.8494 95.6765 14.1327C95.8758 14.4054 95.9754 14.7673 95.9754 15.2184C95.9754 15.7009 95.8391 16.1206 95.5663 16.4772C95.3041 16.8234 94.9159 17.0961 94.4019 17.2954C93.8984 17.4843 93.2847 17.5787 92.5609 17.5787ZM98.9066 15.36L98.9381 13.9281L104.083 9.23906H105.452L101.818 12.7165L101.188 13.2515L98.9066 15.36ZM98.0254 17.5V5.82453H99.1426V17.5H98.0254ZM104.43 17.5L100.984 13.2043L101.707 12.3389L105.799 17.5H104.43Z" fill="#26251E"/>
<defs>
<linearGradient id="paint0_linear_155_8481" x1="18.0013" y1="7.3299" x2="12.3347" y2="18.9966" gradientUnits="userSpaceOnUse">
<stop stop-color="#F56711"/>
<stop offset="1" stop-color="#26251E"/>
</linearGradient>
</defs>
</svg>
