<svg width="16" height="16" viewBox="0 0 16 16" fill="none" xmlns="http://www.w3.org/2000/svg">
<g clip-path="url(#clip0_1079_3812)">
<path d="M6.09427 14.3905C4.97724 14.0579 3.98294 13.4405 3.19563 12.6224C3.48934 12.2743 3.66634 11.8245 3.66634 11.3334C3.66634 10.2289 2.77091 9.33345 1.66634 9.33345C1.59952 9.33345 1.53347 9.33675 1.46834 9.34315C1.3796 8.90932 1.33301 8.46018 1.33301 8.00012C1.33301 7.30325 1.43993 6.63135 1.63827 5.99992C1.64761 6.00005 1.65697 6.00012 1.66634 6.00012C2.77091 6.00012 3.66634 5.10468 3.66634 4.00012C3.66634 3.68302 3.59254 3.38318 3.46121 3.11679C4.23217 2.39992 5.17317 1.86342 6.21704 1.57446C6.54781 2.22281 7.22191 2.66679 7.99967 2.66679C8.77744 2.66679 9.45154 2.22281 9.78231 1.57446C10.8262 1.86342 11.7672 2.39992 12.5381 3.11679C12.4068 3.38318 12.333 3.68302 12.333 4.00012C12.333 5.10468 13.2284 6.00012 14.333 6.00012C14.3424 6.00012 14.3517 6.00005 14.3611 5.99992C14.5594 6.63135 14.6663 7.30325 14.6663 8.00012C14.6663 8.46018 14.6197 8.90932 14.531 9.34315C14.4659 9.33675 14.3998 9.33345 14.333 9.33345C13.2284 9.33345 12.333 10.2289 12.333 11.3334C12.333 11.8245 12.51 12.2743 12.8037 12.6224C12.0164 13.4405 11.0221 14.0579 9.90507 14.3905C9.64727 13.5841 8.89167 13.0001 7.99967 13.0001C7.10767 13.0001 6.35207 13.5841 6.09427 14.3905Z" stroke="#040B0F" stroke-width="1.33333" stroke-linejoin="round"/>
<path d="M8.00033 10.3332C9.28899 10.3332 10.3337 9.2885 10.3337 7.99984C10.3337 6.71117 9.28899 5.6665 8.00033 5.6665C6.71166 5.6665 5.66699 6.71117 5.66699 7.99984C5.66699 9.2885 6.71166 10.3332 8.00033 10.3332Z" stroke="#040B0F" stroke-width="1.33333" stroke-linejoin="round"/>
</g>
<defs>
<clipPath id="clip0_1079_3812">
<rect width="16" height="16" fill="white"/>
</clipPath>
</defs>
</svg>
